<svg width="60" height="29" viewBox="0 0 60 29" fill="none" xmlns="http://www.w3.org/2000/svg">
<path d="M35.9144 27.9968C34.1145 27.9968 32.2563 27.3113 30.3915 25.959L30.0016 25.6779L29.6118 25.959C27.747 27.3113 25.8887 28 24.0889 28C23.4359 28 22.7764 27.9115 22.1299 27.7346C19.9532 27.1407 18.0202 25.2577 17.2015 22.9418L17.0326 22.4648L16.5193 22.5153C15.6031 22.607 14.687 22.6543 13.7936 22.6543H1V21.3369H13.7936C14.57 21.3369 15.3855 21.299 16.2139 21.22L16.7954 21.1663L16.8019 20.5976C16.8214 18.4966 17.7733 16.4999 19.4139 15.1161L19.8753 14.7275L19.5049 14.2567C16.2334 10.0895 13.8846 6.1245 11.9386 1.48338L13.1958 1C15.1288 5.61584 17.4712 9.5461 20.7362 13.6691L21.0383 14.0514L21.4964 13.8681C22.4093 13.5048 23.3677 13.3216 24.3455 13.3216C26.5352 13.3216 28.322 14.3168 29.6345 15.1824L29.9984 15.4225L30.3622 15.1824C31.6747 14.3168 33.4615 13.3216 35.6512 13.3216C36.6291 13.3216 37.5875 13.5048 38.5004 13.8681L38.9584 14.0514L39.2606 13.6691C42.5256 9.5461 44.8679 5.61584 46.8009 1L48.0582 1.48338C46.1154 6.1245 43.7633 10.0895 40.4918 14.2567L40.1215 14.7275L40.5828 15.1161C42.2267 16.4999 43.1786 18.4998 43.1981 20.5976L43.2046 21.1663L43.7861 21.22C44.6145 21.299 45.43 21.3369 46.2064 21.3369H59V22.6543H46.2064C45.313 22.6543 44.3968 22.607 43.4807 22.5153L42.9674 22.4648L42.7985 22.9418C41.9798 25.2608 40.0468 27.1438 37.8701 27.7346C37.2204 27.9115 36.5609 28 35.9079 28L35.9144 27.9968ZM24.3066 20.5439C22.6594 21.2326 20.9279 21.7602 19.1605 22.1172L18.3743 22.2752L18.696 22.9892C19.4692 24.7048 20.9279 26.0349 22.497 26.4614C23.0201 26.6036 23.5528 26.6762 24.0856 26.6762C25.4664 26.6762 26.8438 26.2055 28.3025 25.2355L28.9523 24.8027L28.3935 24.2656C27.7405 23.6369 27.1817 23.0366 26.6652 22.4711L26.2591 22.0288C25.8497 21.5833 25.4469 21.141 25.0473 20.7019L24.7354 20.3606L24.3033 20.5407L24.3066 20.5439ZM34.956 20.705C34.5336 21.1663 34.108 21.6307 33.6792 22.1014L33.3381 22.4711C32.8215 23.0335 32.2628 23.6369 31.6098 24.2656L31.051 24.8027L31.7007 25.2355C33.1594 26.2055 34.5369 26.6762 35.9176 26.6762C36.4472 26.6762 36.9832 26.6036 37.5062 26.4614C39.0754 26.0317 40.5308 24.7016 41.304 22.9892L41.6257 22.2752L40.8395 22.1172C39.0721 21.7634 37.3406 21.2326 35.6934 20.5439L35.2614 20.3638L34.9495 20.705H34.956ZM29.2869 17.5772C28.4487 18.2028 27.5846 18.8505 26.6782 19.3876L26.0122 19.7825L27.6723 21.596C28.348 22.3352 28.9653 22.9576 29.55 23.5074L29.9984 23.9276L30.4467 23.5074C31.0347 22.9608 31.6455 22.3352 32.3245 21.5991L33.9878 19.7856L33.3218 19.3907C32.4057 18.8473 31.5448 18.2028 30.7131 17.5804L29.9951 17.0465L29.2804 17.5804L29.2869 17.5772ZM38.8577 16.2724C38.169 17.097 37.4738 17.8995 36.8013 18.6609L36.2002 19.337L37.0579 19.6624C38.2794 20.1237 39.5757 20.4933 41.0214 20.7903L41.8823 20.9672L41.8011 20.1142C41.6614 18.604 40.9499 17.2171 39.7999 16.2029L39.2931 15.7574L38.861 16.2724H38.8577ZM20.2066 16.2029C19.0566 17.2139 18.3451 18.604 18.2054 20.1142L18.1274 20.9672L18.9883 20.7903C20.434 20.4933 21.7303 20.1268 22.9518 19.6624L23.8095 19.337L23.2085 18.6609C22.5327 17.8995 21.8408 17.097 21.152 16.2724L20.7199 15.7574L20.2131 16.2029H20.2066ZM24.3488 14.6295C23.8875 14.6295 23.4034 14.6927 22.8706 14.8191L21.8667 15.0592L22.5262 15.8333C23.2962 16.74 24.0207 17.5709 24.7386 18.3671L25.083 18.7494L25.5411 18.5029C26.4053 18.0385 27.2174 17.4509 28.1108 16.7842L28.8776 16.2155L28.0459 15.7385C26.7171 14.9771 25.5443 14.6232 24.3488 14.6232V14.6295ZM35.6577 14.6295C34.4654 14.6295 33.2894 14.9834 31.9606 15.7448L31.1289 16.2219L31.8956 16.7905C32.7923 17.4572 33.6045 18.048 34.4654 18.5092L34.9235 18.7557L35.2679 18.3734C35.9858 17.5741 36.7071 16.7463 37.4803 15.8396L38.1398 15.0655L37.1359 14.8254C36.6031 14.6959 36.119 14.6359 35.6577 14.6359V14.6295Z" fill="#FE8B7B" stroke="#FE8B7B" stroke-width="0.5"/>
</svg>
